<?xml version="1.0" encoding="UTF-8"?>
<svg xmlns="http://www.w3.org/2000/svg" width="16" height="16" viewBox="0 0 16 16" role="img" aria-label="Mission Control Big Dipper and North Star">
  <path d="M3.5.75h9l2.75 2.75v9l-2.75 2.75h-9L.75 12.5v-9Z" fill="#020816" stroke="#38BDF8" stroke-width=".55"/>
  <g transform="matrix(.962 -.5015 .5015 .962 -5.158 5.176)">
  <path d="M2.1 9.1 3.5 8.4 4.9 8.7 6.3 9.35 8.7 9.55 8.25 10.5 6.05 10.9 6.3 9.35" fill="none" stroke="#6E95AE" stroke-opacity=".65" stroke-width=".42" stroke-linecap="round" stroke-linejoin="round"/>
  <g fill="#A8C1D3" opacity=".72"><circle cx="2.1" cy="9.1" r=".25"/><circle cx="3.5" cy="8.4" r=".28"/><circle cx="4.9" cy="8.7" r=".255"/><circle cx="6.3" cy="9.35" r=".3"/><circle cx="6.05" cy="10.9" r=".265"/><circle cx="8.25" cy="10.5" r=".29"/><circle cx="8.7" cy="9.55" r=".33"/></g>
  </g>
  <g transform="translate(-3.15 -.6)">
  <path d="m11.15 1.5.85 2.6 2.65.75-2.65.8-.85 2.7-.85-2.7-2.65-.8 2.65-.75Z" fill="#FFFFFF" stroke="#67E8F9" stroke-width=".32" stroke-linejoin="round"/>
  <path d="M11.15 2.55v4.6M8.85 4.85h4.6m-3.93-1.63 3.26 3.26m0-3.26-3.26 3.26" stroke="#FFFFFF" stroke-width=".28" stroke-linecap="round"/>
  <circle cx="11.15" cy="4.85" r=".68" fill="#FFFFFF" stroke="#67E8F9" stroke-width=".24"/>
  <circle cx="11.15" cy="4.85" r=".28" fill="#38BDF8"/>
  </g>
</svg>
